<svg width="80" height="80" viewBox="0 0 80 80" fill="none" xmlns="http://www.w3.org/2000/svg">
  <!-- Avatar background circle -->
  <circle cx="40" cy="40" r="38" fill="#E8EEF8" stroke="#C5D2E8" stroke-width="1.5"/>

  <!-- Hair -->
  <ellipse cx="40" cy="26" rx="14" ry="13" fill="#7B4F2E"/>
  <ellipse cx="40" cy="31" rx="14" ry="10" fill="#7B4F2E"/>
  <!-- Hair sides -->
  <ellipse cx="28" cy="34" rx="5" ry="8" fill="#7B4F2E"/>
  <ellipse cx="52" cy="34" rx="5" ry="8" fill="#7B4F2E"/>

  <!-- Face -->
  <ellipse cx="40" cy="30" rx="11" ry="12" fill="#F5C5A0"/>

  <!-- Neck -->
  <rect x="36" y="40" width="8" height="6" rx="2" fill="#F5C5A0"/>

  <!-- Shoulders / Body -->
  <path d="M16 65 C16 52 24 47 40 47 C56 47 64 52 64 65 Z" fill="#5B8DD9"/>

  <!-- Collar / shirt detail -->
  <path d="M36 47 L40 54 L44 47" fill="#4A7BC8" stroke="#4A7BC8" stroke-width="0.5"/>

  <!-- Green plus badge -->
  <circle cx="60" cy="60" r="14" fill="#22C55E" stroke="white" stroke-width="2.5"/>
  <line x1="60" y1="53" x2="60" y2="67" stroke="white" stroke-width="3" stroke-linecap="round"/>
  <line x1="53" y1="60" x2="67" y2="60" stroke="white" stroke-width="3" stroke-linecap="round"/>
</svg>
